<!DOCTYPE svg PUBLIC "-//W3C//DTD SVG 20010904//EN" "http://www.w3.org/TR/2001/REC-SVG-20010904/DTD/svg10.dtd">
<svg version="1.0" xmlns="http://www.w3.org/2000/svg" width="1440px" height="707px" viewBox="0 0 14400 7070" preserveAspectRatio="xMidYMid meet">
 <defs>
  <linearGradient y2="0" x2="1" y1="0" x1="0" id="svg_3">
   <stop offset="0" stop-color="#ff7c00"/>
   <stop offset="1" stop-color="#00ffba"/>
  </linearGradient>
 </defs>
<g id="layer101" fill="url(#svg_3)" stroke="none">
 <path d="M0 6096 l0 -975 45 -86 c58 -113 239 -374 332 -480 115 -132 242 -227 364 -273 302 -112 622 16 876 351 41 54 93 112 116 129 112 82 235 107 342 69 93 -33 153 -81 380 -301 116 -113 232 -221 258 -239 117 -80 253 -116 380 -100 105 13 122 17 230 60 138 54 207 66 299 49 78 -14 206 -73 280 -131 106 -82 283 -246 422 -392 366 -382 628 -548 891 -564 297 -18 577 147 812 477 45 63 122 180 173 260 117 186 169 251 229 283 76 42 199 67 327 67 155 0 267 -30 451 -120 258 -125 417 -243 746 -553 592 -558 872 -738 1422 -917 277 -90 493 -121 694 -102 274 27 518 97 798 230 93 44 186 85 208 91 143 40 344 -30 640 -223 167 -108 241 -171 509 -429 495 -475 657 -587 946 -653 208 -48 365 -41 566 25 169 55 428 159 587 236 l77 38 0 2573 0 2574 -7200 0 -7200 0 0 -974z"/>
 </g>

</svg>